<svg width="24" height="24" viewBox="0 0 24 24" fill="none" xmlns="http://www.w3.org/2000/svg">
<g clip-path="url(#clip0_211_80947)">
<path d="M6.33227 8H17.6713C17.9596 7.99997 18.2446 8.06229 18.5066 8.1827C18.7687 8.30311 19.0015 8.47876 19.1893 8.6976C19.3771 8.91645 19.5153 9.17331 19.5946 9.45059C19.6738 9.72786 19.6921 10.019 19.6483 10.304L18.3933 18.456C18.2843 19.1644 17.9253 19.8105 17.3813 20.2771C16.8372 20.7438 16.144 21.0002 15.4273 21H8.57527C7.85867 21 7.16575 20.7434 6.6219 20.2768C6.07805 19.8102 5.71919 19.1643 5.61027 18.456L4.35527 10.304C4.31144 10.019 4.32976 9.72786 4.40898 9.45059C4.48819 9.17331 4.62643 8.91645 4.81422 8.6976C5.002 8.47876 5.23489 8.30311 5.49691 8.1827C5.75894 8.06229 6.0439 7.99997 6.33227 8Z" stroke="black" stroke-width="1.5" stroke-linecap="round" stroke-linejoin="round"/>
<path d="M9 11V6C9 5.20435 9.31607 4.44129 9.87868 3.87868C10.4413 3.31607 11.2044 3 12 3C12.7956 3 13.5587 3.31607 14.1213 3.87868C14.6839 4.44129 15 5.20435 15 6V11" stroke="black" stroke-width="1.5" stroke-linecap="round" stroke-linejoin="round"/>
</g>
<defs>
<clipPath id="clip0_211_80947">
<rect width="24" height="24" fill="white"/>
</clipPath>
</defs>
</svg>
