<svg xmlns="http://www.w3.org/2000/svg" xmlns:xlink="http://www.w3.org/1999/xlink" xmlns:xodm="http://www.corel.com/coreldraw/odm/2003" xml:space="preserve" width="172.392mm" height="42.506mm" version="1.1" style="shape-rendering:geometricPrecision; text-rendering:geometricPrecision; image-rendering:optimizeQuality; fill-rule:evenodd; clip-rule:evenodd" viewBox="0 0 1640.55 404.5">
 <defs>
  <style type="text/css">
   <![CDATA[
    .fil1 {fill:#530086}
    .fil0 {fill:#530086;fill-rule:nonzero}
   ]]>
  </style>
 </defs>
 <g id="Слой_x0020_1">
  <metadata id="CorelCorpID_0Corel-Layer"/>
  <g id="_2243167852864">
   <path class="fil0" d="M487.34 286.63l11.32 0 17.15 23.71 0 -0.03 17.4 -23.68 11.18 0 0 55.14 -12.81 0 0 -34.67 -14.16 19.83 -3.24 0 -13.99 -19.96 0 34.8 -12.86 0 0 -55.14zm83.84 0l38.89 0 0 11.39 -26.04 0 0 10.42 22.34 0 0 10.7 -22.34 0 0 11.2 26.4 0 0 11.43 -39.26 0 0 -55.14zm100.33 0l0 11.39 -24.65 0 0 9.16 9.52 0c4,0 7.47,0.73 10.41,2.21 2.93,1.47 5.18,3.49 6.75,6.06 1.57,2.56 2.35,5.47 2.35,8.71 0,3.49 -0.89,6.57 -2.64,9.25 -1.76,2.68 -4.14,4.75 -7.14,6.19 -2.99,1.45 -6.31,2.17 -9.92,2.17l-22.23 0 0 -55.14 37.55 0zm-15.61 44.15c2.03,0 3.72,-0.58 5.09,-1.76 1.37,-1.18 2.05,-2.81 2.05,-4.89 0,-2.09 -0.68,-3.67 -2.05,-4.75 -1.37,-1.08 -3.06,-1.62 -5.09,-1.62l-9.04 0 0 13.01 9.04 0zm43.07 -44.15l38.89 0 0 11.39 -26.04 0 0 10.42 22.34 0 0 10.7 -22.34 0 0 11.2 26.4 0 0 11.43 -39.26 0 0 -55.14zm62.09 45.06c2.82,0 4.22,-1.87 4.22,-5.61l0 -39.41 46.02 0 0 55.15 -12.76 0 0 -43.75 -20.4 0 0 29.32c0,3.6 -0.79,6.57 -2.35,8.91 -1.56,2.35 -3.61,4.07 -6.15,5.16 -2.53,1.08 -5.26,1.62 -8.21,1.62l-3.61 0 0 -11.39 3.24 0zm89.91 -45.06l0 17.47 11.12 0c3.78,0 7.17,0.8 10.16,2.4 2.97,1.59 5.31,3.82 7,6.67 1.69,2.85 2.55,6.09 2.55,9.72 0,3.57 -0.86,6.78 -2.56,9.66 -1.7,2.89 -4.07,5.15 -7.1,6.78 -3.02,1.63 -6.44,2.45 -10.22,2.45l-23.81 0 0 -55.14 12.86 0zm10.42 43.75c2.3,0 4.13,-0.69 5.5,-2.08 1.37,-1.37 2.05,-3.18 2.05,-5.43 0,-2.21 -0.69,-4.01 -2.08,-5.37 -1.37,-1.37 -3.2,-2.05 -5.47,-2.05l-10.42 0 0 14.92 10.42 0zm43.52 -43.75l12.86 0 0 21.48 24.08 0 0 -21.48 12.9 0 0 55.14 -12.9 0 0 -22.26 -24.08 0 0 22.26 -12.86 0 0 -55.14zm114.9 55.14l-3.57 -8.96 -22.99 0 -3.57 8.96 -13.58 0 22.62 -55.19 12.06 0 22.62 55.19 -13.58 0zm-22.34 -19.63l14.55 0 -6.85 -17.23 -0.36 -1.7 -0.12 0 -0.36 1.7 -6.85 17.23zm85.21 19.63l0 -18.45 -5.67 0 -2.48 0 -9.69 18.45 -14.73 0 11.77 -20.47c-3.23,-1.38 -5.76,-3.49 -7.63,-6.31 -1.87,-2.82 -2.8,-6.09 -2.8,-9.8 0,-3.61 0.84,-6.84 2.53,-9.65 1.69,-2.81 4.04,-5 7.06,-6.56 3.02,-1.58 6.44,-2.35 10.27,-2.35l24.21 0 0 55.14 -12.85 0zm0 -43.71l-10.82 0c-1.38,0 -2.64,0.32 -3.79,0.97 -1.15,0.65 -2.06,1.52 -2.74,2.62 -0.68,1.09 -1.01,2.28 -1.01,3.54 0,1.41 0.33,2.67 0.98,3.79 0.66,1.12 1.58,2.01 2.73,2.64 1.15,0.64 2.42,0.95 3.83,0.95l10.82 0 0 -14.52zm100.24 39.41c-4.86,-0.51 -9.11,-1.73 -12.73,-3.64 -3.61,-1.92 -6.44,-4.54 -8.44,-7.85 -2.02,-3.31 -3.03,-7.27 -3.03,-11.86 0,-4.6 1.02,-8.55 3.05,-11.86 2.03,-3.31 4.86,-5.92 8.47,-7.82 3.63,-1.91 7.86,-3.14 12.69,-3.68l0 -4.12 12.78 0 0 4.17c4.82,0.54 9.03,1.77 12.64,3.68 3.61,1.9 6.42,4.51 8.46,7.82 2.02,3.31 3.03,7.25 3.03,11.82 0,4.57 -1.01,8.51 -3.03,11.82 -2.03,3.31 -4.84,5.92 -8.46,7.85 -3.61,1.91 -7.82,3.14 -12.64,3.68l0 4.31 -12.78 0 0 -4.31zm0 -34.7c-3.29,0.35 -6.01,1.46 -8.13,3.32 -2.12,1.87 -3.18,4.55 -3.18,8.07 0,3.52 1.07,6.2 3.18,8.07 2.12,1.87 4.83,2.98 8.13,3.32l0 -22.78zm12.78 22.78c3.31,-0.35 5.99,-1.45 8.1,-3.31 2.09,-1.84 3.14,-4.54 3.14,-8.08 0,-3.54 -1.05,-6.24 -3.14,-8.1 -2.1,-1.84 -4.79,-2.95 -8.1,-3.29l0 22.78zm82.33 16.22l-3.57 -8.96 -22.99 0 -3.57 8.96 -13.58 0 22.62 -55.19 12.06 0 22.62 55.19 -13.58 0zm-22.34 -19.63l14.55 0 -6.85 -17.23 -0.36 -1.7 -0.12 0 -0.36 1.7 -6.85 17.23zm94.81 -35.52l0 11.39 -24.65 0 0 9.16 9.52 0c4,0 7.47,0.73 10.41,2.21 2.93,1.47 5.18,3.49 6.75,6.06 1.57,2.56 2.35,5.47 2.35,8.71 0,3.49 -0.89,6.57 -2.64,9.25 -1.76,2.68 -4.14,4.75 -7.14,6.19 -2.99,1.45 -6.31,2.17 -9.92,2.17l-22.23 0 0 -55.14 37.55 0zm-15.61 44.15c2.03,0 3.72,-0.58 5.09,-1.76 1.37,-1.18 2.05,-2.81 2.05,-4.89 0,-2.09 -0.68,-3.67 -2.05,-4.75 -1.37,-1.08 -3.06,-1.62 -5.09,-1.62l-9.04 0 0 13.01 9.04 0zm66.96 -44.15c3.81,0 7.23,0.82 10.24,2.45 3,1.63 5.37,3.9 7.07,6.81 1.7,2.91 2.55,6.19 2.55,9.84 0,3.89 -0.83,7.32 -2.51,10.3 -1.68,2.97 -4.01,5.27 -7,6.91 -2.98,1.63 -6.38,2.45 -10.19,2.45l-11.2 0 0 16.39 -12.86 0 0 -55.14 23.89 0zm-0.53 27.37c1.37,0 2.64,-0.36 3.79,-1.09 1.15,-0.73 2.06,-1.73 2.73,-3 0.68,-1.27 1.02,-2.66 1.02,-4.17 0,-1.27 -0.35,-2.51 -1.02,-3.7 -0.66,-1.19 -1.59,-2.14 -2.75,-2.88 -1.16,-0.73 -2.42,-1.09 -3.77,-1.09l-10.51 0 0 15.93 10.51 0zm92.84 27.78l-12.86 0 0 -34.27 -0.04 0 -26.35 34.27 -11.12 0 0 -55.14 12.86 0 0 34.22 26.27 -34.22 11.24 0 0 55.14zm39.67 -55.14l0 20.31 4.79 0 12.89 -20.31 15.41 0 -18.08 26.48 18.49 28.67 -15.78 0 -12.89 -20.97 -4.83 0 0 20.97 -12.9 0 0 -55.14 12.9 0zm93.15 55.14l-3.57 -8.96 -22.99 0 -3.57 8.96 -13.58 0 22.62 -55.19 12.06 0 22.62 55.19 -13.58 0zm-22.34 -19.63l14.55 0 -6.85 -17.23 -0.36 -1.7 -0.12 0 -0.36 1.7 -6.85 17.23z"/>
   <g>
    <g>
     <path class="fil1" d="M279.56 15.34c-24.51,-10.15 -50.78,-15.34 -77.31,-15.34 -26.53,0 -52.79,5.19 -77.3,15.34 -24.54,10.16 -46.93,25.12 -65.71,43.9 -18.78,18.78 -33.73,41.17 -43.9,65.7 -10.15,24.51 -15.34,50.78 -15.34,77.31 0,26.52 5.19,52.8 15.34,77.3 10.16,24.54 25.12,46.93 43.9,65.71 18.78,18.78 41.17,33.73 65.71,43.9 24.51,10.15 50.77,15.34 77.3,15.34 26.53,0 52.8,-5.19 77.31,-15.34 24.53,-10.16 46.93,-25.12 65.7,-43.9 18.78,-18.78 33.73,-41.17 43.9,-65.71 10.15,-24.5 15.34,-50.78 15.34,-77.3 0,-26.53 -5.19,-52.8 -15.34,-77.31 -10.16,-24.53 -25.12,-46.93 -43.9,-65.7 -18.78,-18.78 -41.17,-33.73 -65.7,-43.9zm46.2 63.4c16.21,16.21 29.18,35.48 37.96,56.66 8.78,21.19 13.2,43.91 13.2,66.84 0,22.93 -4.42,45.64 -13.2,66.83 -8.77,21.18 -21.75,40.46 -37.96,56.67 -16.21,16.21 -35.48,29.18 -56.67,37.96 -21.19,8.78 -43.91,13.2 -66.84,13.2 -22.93,0 -45.64,-4.42 -66.83,-13.2 -21.18,-8.77 -40.46,-21.75 -56.67,-37.96 -16.21,-16.21 -29.18,-35.49 -37.96,-56.67 -8.78,-21.19 -13.2,-43.9 -13.2,-66.83 0,-22.93 4.42,-45.64 13.2,-66.84 8.77,-21.18 21.75,-40.46 37.96,-56.66 16.21,-16.21 35.49,-29.18 56.67,-37.96 21.19,-8.78 43.9,-13.2 66.83,-13.2 22.93,0 45.64,4.42 66.84,13.2 21.18,8.77 40.46,21.75 56.67,37.96z"/>
     <path class="fil1" d="M316.31 115.16c18.42,24.09 29.38,54.2 29.38,86.88 0,32.71 -10.98,62.85 -29.44,86.95 -1.09,1.62 -2.93,2.69 -5.03,2.69 -2.1,0 -3.94,-1.06 -5.03,-2.69l-61.96 -82.05c-2.31,-3.07 -2.08,-7.05 0.27,-10.16l61.68 -81.68c1.08,-1.63 2.94,-2.7 5.04,-2.7 2.13,0 4.01,1.1 5.09,2.77z"/>
     <path class="fil1" d="M202.56 58.9c24.93,0 48.37,6.38 68.78,17.59 2.11,0.95 3.57,3.06 3.57,5.52 0,1.49 -0.54,2.85 -1.43,3.91l-68.51 90.73c-1.86,2.47 -3.7,3.55 -8.05,3.55l-28.53 -0.02c-0.17,0.02 -0.34,0.02 -0.51,0.02 -3.34,0 -6.05,-2.71 -6.05,-6.05l0.01 -0.35 0.01 -68.47 0 -0.03 0 -0.04 0 -0.01 0 -0.02 0 -0.04 0 -0.03 0 -0.03 0 -0.03 0 -0 0 -0.03 0 -0.04 0 -0.03 0 -0.03 0 -0.02 0 -0.02 0 -0.04 0 -0.03 0 -0.03 0 -0.04c0,-3.34 -2.71,-6.05 -6.05,-6.05l-0.04 0 -0.05 0 -0.04 0 -0.02 0 -0.02 0 -0.04 0 -0.04 0 -0.04 0 -0 0 -0.04 0 -0.04 0 -0.04 0 -0.03 0 -0.02 0 -0.04 0 -0.04 0 -0.04 0 -0.01 0 -0.03 0 -0.04 0 -0.04 0.01 -0.03 0 -0.01 0 -0.04 0.01 -0.04 0 -0.04 0.01 -0.01 0 -0.03 0 -0.04 0.01 -0.04 0.01 -0.04 0.01 -0.01 0 -0.04 0.01 -0.04 0.01 -0.04 0.01 -0.02 0 -0.02 0 -0.04 0.01 -0.04 0.01 -0.04 0.01 -0 0 -0.04 0.01 -0.04 0.01 -0.04 0.01 -0.02 0.01 -0.02 0 -0.04 0.01 -0.04 0.01 -0.04 0.01 -0 0 -0.04 0.01 -0.04 0.01 -0.04 0.01 -0.03 0.01 -0.01 0 -0.04 0.01 -0.04 0.01 -0.04 0.01 -0.01 0 -0.03 0.01 -0.04 0.02 -0.04 0.01 -0.03 0.01 -0.01 0 -0.04 0.01 -0.04 0.02 -0.04 0.02 -0.01 0 -0.03 0.01 -0.04 0.02 -0.04 0.02 -0.04 0.01 -0 0 -0.04 0.02 -0.04 0.02 -0.04 0.02 -0.02 0.01 -0.02 0.01 -0.04 0.02 -0.04 0.02 -0.04 0.02 -0.13 0.06c-11.22,5.42 -21.42,12.63 -30.22,21.24 -4.55,4.45 -4.68,8.28 -4.68,12.63l-0.02 137.23c0,6.32 0.88,9.12 4.33,12.57 8.69,8.69 18.89,15.88 30.04,21.34l0 0 0.03 0.02 0.01 0.01 0.05 0.03 0.05 0.03 0.02 0.01 0.02 0.01 0.05 0.03 0.05 0.03 0.01 0.01 0.03 0.02 0.05 0.03 0.05 0.03 0.05 0.02 0.05 0.03 0.04 0.02 0.01 0.01 0.05 0.02 0.05 0.02 0.02 0.01 0.02 0.01 0.05 0.02 0.05 0.02 0.01 0.01 0.04 0.02 0.05 0.02 0.05 0.02 0.05 0.02 0.05 0.02 0.04 0.02 0.01 0 0.05 0.02 0.05 0.02 0.03 0.01 0.02 0.01 0.05 0.02 0.05 0.02 0.01 0 0.04 0.01 0.05 0.02 0.05 0.02 0.05 0.02 0.05 0.02 0.04 0.01 0.01 0 0.05 0.02 0.05 0.01 0.03 0.01 0.03 0.01 0.05 0.01 0.05 0.01 0.02 0 0.04 0.01 0.05 0.01 0.05 0.01 0.05 0.01 0.05 0.01 0.04 0.01 0.01 0 0.05 0.01 0.05 0.01 0.03 0 0.03 0 0.05 0.01 0.06 0.01 0.01 0 0.04 0 0.05 0.01 0.06 0.01 0.06 0 0.05 0 0.04 0 0.01 0 0.06 0 0.06 0 0.03 0 0.03 0 0.06 0 0.06 0 0.01 0 0.04 0 0.06 0 0.06 0c3.34,0 6.05,-2.71 6.05,-6.05l0 -0.02 0 -0.02 0 -0.02 0 -0.02 -0 -0.02 0 -0.02 0 -0.02 0 -0.01 0 -0.02 -0 -0.02 0 -0.02 0 -0.02 -0 -0.02 0 -0.02 -0 -0.01 0 -0.01 -0 -0.02 0 -0.02 -0 -0.02 0 -0.02 -0 -0.02 -0 -0.02 0 -0 -0 -0.02 -0 -0.02 0 -0.02 -0 -0.02 -0 -0.02 -0 -0.02 -0 -0.02 -0 -0.02 -0 -0.02 -0 -0.02 -0 -0.02 -0 -0.02 0.01 -68.38 -0.01 -0.31c0,-3.34 2.71,-6.05 6.05,-6.05l0.21 0 28.9 0.01c4.24,-0 5.61,1.16 7.98,3.53l68.56 90.79c0.87,1.05 1.39,2.39 1.39,3.86 0,2.49 -1.5,4.63 -3.65,5.56 -20.39,11.18 -43.8,17.55 -68.7,17.55 -79.05,0 -143.13,-64.08 -143.13,-143.13 0,-79.05 64.08,-143.13 143.13,-143.13z"/>
    </g>
    <path class="fil1" d="M1458.56 229.24l26.82 -0c3.46,-0.03 6.58,-2.11 7.92,-5.29l8.5 -20.09 89.2 0 8.25 20.03c1.34,3.24 4.49,5.37 8.01,5.37l28.07 -0c2.86,-0.03 5.16,-2.35 5.16,-5.21 0,-0.8 -0.18,-1.57 -0.54,-2.32l-69.49 -159.5c-0.8,-1.96 -2.71,-3.24 -4.83,-3.24l-37.34 -0c-2.12,0 -4.02,1.28 -4.82,3.24l-69.84 159.7c-0.3,0.67 -0.45,1.39 -0.45,2.12 0,2.88 2.33,5.21 5.21,5.21l0.17 0 0.01 0zm55.95 -56l27.9 -73.12c0.6,-1.59 2.13,-2.65 3.84,-2.65 1.82,0 3.42,1.18 3.92,2.89l27.81 72.88 -63.48 0z"/>
    <path class="fil1" d="M1386.25 64.25l0 64.26 -79.97 0 0 -64.24c0,-3 -2.41,-5.3 -5.38,-5.3l-29.47 0c-2.95,0 -5.35,2.32 -5.35,5.28l0 159.7c0,2.85 2.27,5.2 5.09,5.3l29.82 0c2.87,0 5.22,-2.28 5.3,-5.12l0 -64.46 79.97 0 0 64.28c0,2.85 2.27,5.2 5.09,5.3l29.82 0c2.87,0 5.22,-2.28 5.3,-5.12l0 -159.86c0,-3 -2.41,-5.3 -5.38,-5.3l-29.47 0c-2.95,0 -5.35,2.32 -5.35,5.28z"/>
    <path class="fil1" d="M921.85 223.88l0.14 -39.94 41.14 -0.03c10.31,-0.34 20.52,-1.95 30.28,-5.37 9.02,-3.16 17.32,-7.81 24.06,-14.69 5.29,-5.13 9.12,-11.4 11.8,-18.24 3.01,-7.69 4.14,-16.08 4.14,-24.3 0,-8.85 -1.42,-17.54 -4.96,-25.69 -3.22,-7.39 -7.88,-13.95 -13.79,-19.43 -6.46,-5.99 -14.01,-10.21 -22.36,-12.96 -9.54,-3.14 -19.1,-4.26 -29.11,-4.26l-75.95 0 -0.19 -0c-2.93,0 -5.3,2.38 -5.3,5.3l0 159.69c0,2.93 2.38,5.3 5.27,5.3l0.43 -0.01 28.8 0 0.3 0.01c2.85,0 5.2,-2.26 5.3,-5.11l0.01 -0.26zm-0.02 -71.13l0 -62.64 44.97 0c27.58,0 34.19,38.91 16.76,55.04 -6.5,6.02 -11.91,7.6 -20.65,7.6l-41.08 0z"/>
    <path class="fil1" d="M492.58 39.11c-2.94,0 -5.35,2.32 -5.35,5.28l0 179.56c0,2.85 2.27,5.2 5.09,5.3l29.82 0c2.92,0 5.3,-2.36 5.3,-5.28l0 -73.95 39.01 0 52.89 75.47c1.57,2.26 4.1,3.65 6.93,3.74 0.07,0.01 0.13,0.02 0.2,0.02l30.85 0c2.89,-0.05 5.21,-2.41 5.21,-5.3 0,-1.1 -0.34,-2.16 -0.98,-3.07l-61.44 -87.58 31.05 -54.58c2.67,-4.7 6.55,-8.48 11.43,-10.85 4.68,-2.27 9.99,-1.78 15.01,-1.82l0.65 -0.02c2.71,-0.23 4.81,-2.49 4.84,-5.2l0 -19.88c0,-2.88 -2.45,-4.5 -5.14,-4.51l-12.36 -0.02c-9.23,-0.01 -18.09,1.83 -26.31,6.02 -3.82,2.28 -7.29,5.03 -10.41,8.21 -3.52,3.59 -6.56,7.64 -9.05,12.01l-31.96 56.18 -40.43 0 -0 -74.45c0,-3 -2.41,-5.3 -5.38,-5.3l-29.47 0z"/>
    <path class="fil1" d="M1147.96 56.53c-12.77,0 -25.65,1.67 -37.63,6.25 -10.66,4.08 -20.3,9.97 -28.33,18.16 -7.98,7.85 -14,17.34 -18.03,27.77 -8.44,21.85 -8.98,51.63 -0.01,73.39 4.23,10.26 10.24,19.54 18.31,27.21 8.26,7.85 17.87,13.75 28.59,17.58 22.49,8.04 51.7,8.04 74.18,0 10.73,-3.84 20.33,-9.74 28.59,-17.58 8.07,-7.66 14.08,-16.94 18.31,-27.21 8.97,-21.76 8.43,-51.54 -0.01,-73.39 -4.03,-10.44 -10.06,-19.93 -18.06,-27.8 -8,-8.17 -17.65,-14.05 -28.29,-18.13 -11.97,-4.59 -24.86,-6.25 -37.63,-6.25zm-23.77 142.71c-6.03,-2.8 -11.2,-6.6 -15.19,-11.94 -4.49,-5.51 -7.36,-11.87 -9.04,-18.74 -1.87,-7.64 -2.58,-15.57 -2.58,-23.43 0,-8.48 0.91,-17.13 3.45,-25.25 2.17,-6.93 5.56,-13.35 10.48,-18.72 4.19,-4.57 9.23,-8.13 14.86,-10.72 11.51,-5.29 32.07,-5.29 43.58,0 5.63,2.59 10.67,6.15 14.86,10.72 4.93,5.37 8.31,11.79 10.48,18.72 2.54,8.11 3.45,16.77 3.45,25.25 0,7.86 -0.71,15.78 -2.58,23.43 -1.68,6.85 -4.53,13.22 -9,18.69 -4.02,5.37 -9.18,9.18 -15.23,11.99 -13.06,6.06 -34.48,6.06 -47.54,0z"/>
    <path class="fil1" d="M724.63 62.78c-10.66,4.08 -20.3,9.97 -28.33,18.16 -7.98,7.85 -14,17.34 -18.03,27.77 -8.09,20.94 -8.6,52.55 -0.01,73.39 4.23,10.26 10.24,19.54 18.31,27.21 8.26,7.85 17.87,13.75 28.6,17.58 22.49,8.04 51.69,8.04 74.18,0 10.73,-3.84 20.33,-9.74 28.59,-17.58 8.07,-7.66 14.08,-16.94 18.31,-27.21 8.97,-21.76 8.43,-51.54 -0.01,-73.39 -4.03,-10.44 -10.07,-19.92 -18.06,-27.8 -8,-8.17 -17.65,-14.05 -28.29,-18.13 -21.99,-8.42 -53.27,-8.42 -75.26,0zm13.86 136.45c-6.03,-2.8 -11.2,-6.6 -15.19,-11.94 -4.49,-5.51 -7.36,-11.87 -9.04,-18.74 -1.87,-7.64 -2.58,-15.57 -2.58,-23.43 0,-8.48 0.91,-17.13 3.45,-25.25 2.17,-6.93 5.55,-13.35 10.48,-18.72 4.19,-4.57 9.23,-8.13 14.86,-10.72 11.51,-5.29 32.07,-5.29 43.58,0 5.63,2.59 10.67,6.15 14.86,10.72 4.93,5.37 8.31,11.79 10.48,18.72 2.54,8.11 3.45,16.77 3.45,25.25 0,7.86 -0.71,15.78 -2.58,23.43 -1.68,6.85 -4.53,13.22 -9,18.69 -4.01,5.37 -9.18,9.18 -15.23,11.99 -13.07,6.07 -34.47,6.07 -47.54,0z"/>
   </g>
  </g>
 </g>
</svg>
