<svg xmlns="http://www.w3.org/2000/svg" width="427" height="114" viewBox="0 0 427 114" fill="none">
<path d="M97.5699 69.5339H109.18C110.099 69.5339 110.695 69.1 111.061 68.2719L140.159 2.5243C140.578 1.34664 140.201 0.757812 139.03 0.757812H126.362C125.192 0.757812 124.439 1.30491 124.104 2.39819L114.823 25.3653L104.162 53.885H103.409L92.6226 25.4914L82.8395 2.5243C82.3381 1.34664 81.3345 0.757812 79.8295 0.757812H68.1653C67.4962 0.757812 67.0364 0.968307 66.7857 1.38837C66.535 1.80936 66.535 2.3138 66.7857 2.90263L95.3829 68.3971C95.8133 69.3828 96.581 69.5348 97.5699 69.533V69.5339Z" fill="#FEFEFE"/>
<path d="M180.294 13.5032C183.387 13.5032 186.272 14.0076 188.948 15.0174C191.54 16.0273 193.797 17.4998 195.721 19.4341C197.643 21.3694 199.107 23.6403 200.11 26.2488C201.114 28.9407 201.615 31.8431 201.615 34.956C201.615 38.1533 201.114 41.0557 200.11 43.6633C199.107 46.2717 197.643 48.5427 195.721 50.4779C193.797 52.4132 191.54 53.9274 188.948 55.0207C186.439 56.114 183.554 56.6611 180.294 56.6611C177.033 56.6611 174.148 56.114 171.639 55.0207C168.964 53.9274 166.706 52.4132 164.866 50.4779C162.944 48.5427 161.48 46.2717 160.477 43.6633C159.473 41.0557 158.972 38.1524 158.972 34.956C158.972 31.8431 159.473 28.9407 160.477 26.2488C161.48 23.6403 162.944 21.3694 164.866 19.4341C166.79 17.4998 169.047 16.0273 171.639 15.0174C174.232 14.0076 177.117 13.5032 180.294 13.5032ZM154.707 60.4472C158.052 63.7279 161.856 66.2103 166.121 67.8924C170.469 69.6589 175.109 70.5426 180.043 70.5426C184.893 70.5426 189.534 69.6589 193.965 67.8924C198.396 66.1259 202.201 63.6862 205.378 60.5733C208.556 57.5448 211.106 53.8004 213.029 49.342C214.868 45.1358 215.788 40.466 215.788 35.3344C215.788 30.3706 214.827 25.7017 212.904 21.3267C210.98 17.0362 208.388 13.2918 205.128 10.0954C201.783 6.81465 197.979 4.33229 193.714 2.65019C189.283 0.883707 184.642 0 179.792 0C174.859 0 170.218 0.883707 165.87 2.65019C161.522 4.41668 157.676 6.89903 154.331 10.0954C151.071 13.2927 148.478 17.0362 146.555 21.3267C140.969 34.0315 144.713 50.9212 154.707 60.4472Z" fill="#FEFEFE"/>
<path d="M282.191 0.757812H223.994C222.824 0.757812 222.238 1.34664 222.238 2.5243V12.8719C222.238 14.0496 222.824 14.6384 223.994 14.6384H245.818V67.7665C245.818 68.9442 246.403 69.533 247.574 69.533H258.611C259.782 69.533 260.367 68.9442 260.367 67.7665V14.6384H282.191C283.362 14.6384 283.947 14.0496 283.947 12.8719V2.5243C283.947 1.34664 283.362 0.757812 282.191 0.757812Z" fill="#FEFEFE"/>
<path d="M1.83773 69.534C0.667265 69.534 0.0820312 68.9451 0.0820312 67.7675C0.0820312 54.8531 0.0838745 41.9397 0.0838745 29.0263C0.0838745 27.8486 0.669108 27.2598 1.83958 27.2598H47.9707C49.1412 27.2598 49.7264 27.8486 49.7264 29.0263V39.1217C49.7264 40.2993 49.1412 40.8881 47.9707 40.8881H14.6355V55.7795H29.2525H53.6157C54.7862 55.7795 55.3714 56.3683 55.3714 57.546V67.7675C55.3714 68.9451 54.7862 69.534 53.6157 69.534H29.2525H1.83773Z" fill="#FEFEFE"/>
<path d="M52.6139 0.757812H28.1668H26.2028H1.7557C0.585234 0.757812 0 1.34664 0 2.5243V12.6197C0 13.7974 0.585234 14.3862 1.7557 14.3862H26.2028H28.1668H52.6139C53.7844 14.3862 54.3696 13.7974 54.3696 12.6197V2.5243C54.3696 1.34664 53.7844 0.757812 52.6139 0.757812Z" fill="#88BD2F"/>
<path d="M298.088 69.534C296.917 69.534 296.332 68.9451 296.332 67.7675L296.334 29.0263C296.334 27.8486 296.919 27.2598 298.09 27.2598H344.221C345.391 27.2598 345.976 27.8486 345.976 29.0263V39.1217C345.976 40.2993 345.391 40.8881 344.221 40.8881H310.795V55.7795H349.865C351.035 55.7795 351.62 56.3683 351.62 57.546V67.7675C351.62 68.9451 351.035 69.534 349.865 69.534H298.088Z" fill="#FEFEFE"/>
<path d="M348.864 0.757812H324.417H322.453H298.006C296.835 0.757812 296.25 1.34664 296.25 2.5243V12.6197C296.25 13.7974 296.835 14.3862 298.006 14.3862H322.453H324.417H348.864C350.034 14.3862 350.62 13.7974 350.62 12.6197V2.5243C350.62 1.34664 350.034 0.757812 348.864 0.757812Z" fill="#88BD2F"/>
<path d="M400.156 34.1059L426.618 67.2453C426.935 67.6691 427.054 68.1448 426.975 68.6743C426.816 69.2037 426.459 69.468 425.905 69.468H411.405C410.136 69.468 409.019 69.1277 408.314 68.1976L387.611 40.8686H378.263L378.314 67.7479C378.314 68.9256 377.729 69.5144 376.559 69.5144H365.521C364.351 69.5144 363.766 68.9256 363.766 67.7479V2.50477C363.766 1.32711 364.351 0.738281 365.521 0.738281H376.338C377.714 0.738281 378.189 1.28445 378.189 2.75699L378.236 27.2383H388.008L408.313 1.9929C409.018 1.11662 410.136 0.796701 411.404 0.796701H425.905C426.459 0.796701 426.816 1.04614 426.974 1.54502C427.053 2.04298 426.934 2.49179 426.617 2.89145L400.155 34.1049L400.156 34.1059Z" fill="#FEFEFE"/>
<path d="M51.9092 113.704L51.8843 103.338L46.819 111.873H45.0486L39.9833 103.536V113.704H36.2461V96.3866H39.5409L45.9831 107.148L52.3267 96.3866H55.6215L55.6464 113.704H51.9092ZM76.4254 109.993H68.4339L66.9096 113.704H62.8277L70.4993 96.3866H74.4328L82.1284 113.704H77.9488L76.4245 109.993H76.4254ZM75.171 106.95L72.4421 100.32L69.7132 106.95H75.172H75.171ZM101.556 99.6525H96.0487V113.704H92.1152V99.6525H86.6315V96.3866H101.556V99.6525ZM116.36 96.3866C117.885 96.3866 119.208 96.6425 120.332 97.1534C121.454 97.6644 122.32 98.3904 122.926 99.3307C123.533 100.271 123.836 101.384 123.836 102.671C123.836 103.94 123.533 105.05 122.926 105.998C122.32 106.947 121.455 107.672 120.332 108.175C119.209 108.678 117.885 108.93 116.36 108.93H112.893V113.705H108.91V96.3875H116.36V96.3866ZM116.139 105.664C117.336 105.664 118.245 105.404 118.868 104.884C119.491 104.365 119.803 103.627 119.803 102.67C119.803 101.697 119.491 100.951 118.868 100.431C118.245 99.9121 117.336 99.6516 116.139 99.6516H112.893V105.663H116.139V105.664ZM142.106 109.994H134.115L132.59 113.705H128.508L136.18 96.3875H140.114L147.809 113.705H143.63L142.105 109.994H142.106ZM140.852 106.951L138.123 100.321L135.394 106.951H140.853H140.852ZM162.835 114.001C161.081 114.001 159.495 113.617 158.078 112.851C156.66 112.084 155.545 111.02 154.734 109.66C153.923 108.299 153.518 106.761 153.518 105.046C153.518 103.33 153.923 101.793 154.734 100.431C155.546 99.0711 156.66 98.0066 158.078 97.2397C159.495 96.4728 161.09 96.0898 162.86 96.0898C164.352 96.0898 165.7 96.3541 166.905 96.8818C168.11 97.4094 169.122 98.1679 169.942 99.1573L167.385 101.532C166.22 100.18 164.778 99.5032 163.057 99.5032C161.992 99.5032 161.042 99.7378 160.205 100.208C159.369 100.678 158.718 101.334 158.25 102.175C157.783 103.016 157.55 103.973 157.55 105.045C157.55 106.117 157.783 107.074 158.25 107.915C158.718 108.756 159.369 109.411 160.205 109.881C161.041 110.352 161.992 110.586 163.057 110.586C164.779 110.586 166.221 109.902 167.385 108.533L169.942 110.908C169.123 111.914 168.106 112.681 166.893 113.209C165.68 113.736 164.328 114 162.836 114L162.835 114.001ZM185.729 102.077C187.827 102.077 189.437 102.547 190.56 103.488C191.682 104.428 192.244 105.822 192.244 107.668C192.244 109.631 191.625 111.128 190.387 112.158C189.15 113.189 187.408 113.704 185.163 113.704H177.393V96.3866H181.352V102.076H185.729V102.077ZM184.942 110.735C185.975 110.735 186.781 110.48 187.364 109.969C187.945 109.458 188.236 108.715 188.236 107.742C188.236 105.944 187.138 105.046 184.942 105.046H181.352V110.735H184.942ZM194.432 96.3866H198.391V113.704H194.432V96.3866ZM240.585 106.728H237.831V113.704H233.873V96.3866H237.831V103.388H240.683L245.208 96.3866H249.412L243.782 104.748L249.584 113.704H245.06L240.586 106.728H240.585ZM263.749 96.3866C265.273 96.3866 266.597 96.6425 267.72 97.1534C268.843 97.6644 269.708 98.3904 270.315 99.3307C270.921 100.271 271.224 101.384 271.224 102.671C271.224 103.94 270.921 105.05 270.315 105.998C269.708 106.947 268.844 107.672 267.72 108.175C266.598 108.678 265.273 108.93 263.749 108.93H260.282V113.705H256.299V96.3875H263.749V96.3866ZM263.528 105.664C264.724 105.664 265.634 105.404 266.257 104.884C266.88 104.365 267.191 103.627 267.191 102.67C267.191 101.697 266.88 100.951 266.257 100.431C265.634 99.9121 264.724 99.6516 263.528 99.6516H260.282V105.663H263.528V105.664ZM287.159 114.001C285.372 114.001 283.762 113.614 282.328 112.839C280.894 112.063 279.771 110.996 278.96 109.635C278.148 108.274 277.743 106.744 277.743 105.046C277.743 103.347 278.148 101.817 278.96 100.456C279.771 99.0961 280.894 98.0279 282.328 97.2527C283.762 96.4775 285.373 96.0898 287.159 96.0898C288.945 96.0898 290.552 96.4775 291.978 97.2527C293.405 98.0279 294.528 99.0952 295.347 100.456C296.166 101.817 296.576 103.347 296.576 105.046C296.576 106.744 296.166 108.274 295.347 109.635C294.528 110.995 293.405 112.063 291.978 112.839C290.553 113.614 288.946 114.001 287.159 114.001ZM287.159 110.587C288.176 110.587 289.093 110.352 289.913 109.882C290.732 109.412 291.376 108.757 291.843 107.916C292.31 107.075 292.543 106.118 292.543 105.046C292.543 103.974 292.31 103.017 291.843 102.176C291.376 101.335 290.732 100.679 289.913 100.209C289.094 99.7387 288.176 99.5041 287.159 99.5041C286.143 99.5041 285.225 99.7387 284.405 100.209C283.586 100.679 282.943 101.335 282.476 102.176C282.008 103.017 281.775 103.974 281.775 105.046C281.775 106.118 282.008 107.075 282.476 107.916C282.943 108.757 283.586 109.412 284.405 109.882C285.225 110.352 286.143 110.587 287.159 110.587ZM316.421 104.675C317.47 104.988 318.273 105.499 318.831 106.208C319.389 106.918 319.667 107.791 319.667 108.831C319.667 110.365 319.089 111.56 317.933 112.418C316.778 113.275 315.126 113.704 312.979 113.704H304.496V96.3866H312.511C314.511 96.3866 316.068 96.7742 317.183 97.5494C318.297 98.3246 318.855 99.4299 318.855 100.864C318.855 101.722 318.642 102.477 318.215 103.128C317.79 103.78 317.19 104.295 316.42 104.674L316.421 104.675ZM308.454 103.561H312.167C313.036 103.561 313.691 103.384 314.133 103.029C314.576 102.675 314.797 102.151 314.797 101.458C314.797 100.782 314.572 100.262 314.121 99.8991C313.67 99.5366 313.018 99.3548 312.166 99.3548H308.453V103.56L308.454 103.561ZM312.831 110.735C314.7 110.735 315.634 109.994 315.634 108.509C315.634 107.075 314.699 106.357 312.831 106.357H308.454V110.735H312.831ZM339.315 109.994H331.324L329.799 113.705H325.717L333.389 96.3875H337.323L345.018 113.705H340.839L339.314 109.994H339.315ZM338.061 106.951L335.332 100.321L332.603 106.951H338.062H338.061ZM364.446 99.6534H358.938V113.705H355.005V99.6534H349.521V96.3875H364.446V99.6534ZM371.801 96.3875H375.759V107.668L383.972 96.3875H387.709V113.705H383.775V102.448L375.563 113.705H371.801V96.3875Z" fill="#88BD2F"/>
<path fill-rule="evenodd" clip-rule="evenodd" d="M216.068 101.887C217.801 101.887 219.206 103.3 219.206 105.044C219.206 106.788 217.801 108.202 216.068 108.202C214.334 108.202 212.93 106.788 212.93 105.044C212.93 103.3 214.334 101.887 216.068 101.887Z" fill="#FEFEFE"/>
</svg>
