<svg width="43" height="37" viewBox="0 0 43 37" fill="none" xmlns="http://www.w3.org/2000/svg">
<path d="M30.3422 0.430023L21.997 23.765C21.9333 23.96 21.7422 24.545 21.4874 24.61H32.1259L42.1911 0.430023H30.3422Z" fill="#1C1C1B"/>
<path d="M20.9141 23.765L18.4296 16.81H7.5363L10.7852 24.61H21.4237C21.2326 24.48 21.0415 23.895 20.9141 23.765ZM16.5185 21.1H12.5689V20.125H16.5185V21.1Z" fill="#1C1C1B"/>
<path d="M12.6326 0.430023H0.783707L3.90519 7.97002H15.3082L12.6326 0.430023ZM10.2119 4.65502H6.26223V3.74502H10.2119V4.65502Z" fill="#1C1C1B"/>
<path d="M15.4993 8.42502H4.0963L7.34519 16.225H18.3022L15.4993 8.42502ZM13.1422 12.845H9.19259V11.87H13.1422V12.845Z" fill="#1C1C1B"/>
<path d="M14.0341 32.41C15.4993 35.855 19.3852 36.05 21.4874 36.05C23.5896 36.05 27.4756 35.855 28.9407 32.41L31.9985 25H10.9763L14.0341 32.41Z" fill="#1C1C1B"/>
</svg>
