<svg width="283" height="39" viewBox="0 0 283 39" fill="none" xmlns="http://www.w3.org/2000/svg">
<path d="M57.9704 4.03998C57.9704 2.98998 58.2518 2.14999 58.7444 1.65999C59.237 1.02999 60.2926 0.609985 61.2074 0.609985H73.0296C74.5778 0.609985 76.4778 0.749986 77.7444 2.00999C78.9407 3.26999 79.0815 5.22998 79.0815 6.62998C79.0815 7.81998 79.0111 8.93998 78.0259 9.98998C77.3926 10.69 76.7593 11.04 75.8444 11.04V11.18C76.9704 11.25 77.8852 11.74 78.4481 12.3C79.5741 13.42 79.6444 14.82 79.6444 16.15C79.6444 17.55 79.6444 19.3 78.3074 20.7C76.9 22.24 75.2815 22.24 73.4518 22.24H61.9815C60.9963 22.24 59.7296 22.31 58.7444 21.19C58.2518 20.56 57.9704 19.65 57.9704 18.81V4.03998ZM70.1444 8.86998C70.7074 8.86998 71.4815 8.86998 71.8333 8.30998C71.9741 8.02998 72.0444 7.60998 72.0444 7.32998C72.0444 6.90998 71.9037 6.62998 71.6926 6.41998C71.2704 5.99998 70.5667 5.99998 70.1444 5.99998H66.1333C65.7815 5.99998 65.5 5.99998 65.2185 6.27998C64.937 6.55998 64.937 6.83998 64.937 7.18998V8.93998H70.1444V8.86998ZM64.937 15.17C64.937 15.94 65.0074 16.29 65.2185 16.5C65.5 16.78 66.2037 16.78 66.5556 16.78H70.2852C71.6222 16.78 72.0444 16.5 72.1148 16.36C72.3259 16.08 72.537 15.52 72.537 15.1C72.537 14.75 72.4667 14.4 72.2555 14.19C71.763 13.56 71.0593 13.56 70.4259 13.56H64.937V15.17Z" fill="white"/>
<path d="M85.6259 22.17C84.7111 22.17 83.7963 22.1 83.0222 21.4C82.037 20.56 82.037 19.72 82.037 18.67V3.89999C82.037 3.05999 82.1778 2.14999 82.9518 1.44999C83.7259 0.679985 84.7815 0.609985 85.6259 0.609985H101.248V5.85999H90.4815C90.0593 5.85999 89.637 5.92999 89.4259 6.13999C89.0741 6.41998 89.0741 6.90999 89.0741 7.18998V8.79998H100.967V13.49H89.0741V15.87C89.0741 16.29 89.2148 16.57 89.3555 16.64C89.7074 16.92 90.2704 16.92 90.6926 16.92H101.319V22.17H85.6259Z" fill="white"/>
<path d="M110.678 2.50001C111.593 0.40001 114.056 0.26001 115.393 0.26001C116.73 0.26001 119.193 0.40001 120.107 2.50001L128.481 22.17H121.022L115.744 7.89001C115.674 7.75001 115.533 7.40001 115.393 7.40001C115.252 7.40001 115.111 7.82001 115.041 7.89001L109.763 22.17H102.304L110.678 2.50001Z" fill="white"/>
<path d="M132.633 22.17C131.719 22.17 130.804 22.1 130.03 21.4C129.044 20.56 129.044 19.72 129.044 18.67V3.89999C129.044 3.05999 129.185 2.14999 129.959 1.44999C130.733 0.679985 131.789 0.609985 132.563 0.609985H148.185V5.85999H137.419C136.996 5.85999 136.574 5.92999 136.363 6.13999C136.011 6.41998 136.011 6.90999 136.011 7.18998V8.79998H147.904V13.49H136.011V15.87C136.011 16.29 136.152 16.57 136.293 16.64C136.644 16.92 137.207 16.92 137.63 16.92H148.256V22.17H132.633Z" fill="white"/>
<path d="M159.233 22.17C155.856 22.17 153.604 21.68 151.844 19.51C150.507 17.9 149.874 15.8 149.874 11.6C149.874 7.96004 150.226 5.30004 151.774 3.34004C153.744 0.820039 156.911 0.540039 159.374 0.540039H168.593V5.93004H162.752C160.43 5.93004 158.741 5.93004 157.756 7.61004C157.122 8.66004 157.052 10.48 157.052 11.53C157.052 13.91 157.404 14.75 157.544 15.1C158.459 16.78 160.5 16.78 162.822 16.78H168.874V22.17H159.233Z" fill="white"/>
<path d="M170.422 11.46H183.652V16.36H170.422V11.46Z" fill="white"/>
<path d="M189.211 22.17L192.659 16.01L184.004 0.540039H191.815L196.319 9.71004L200.893 0.540039H208.563L196.881 22.17H189.211Z" fill="white"/>
<path d="M209.478 22.17V4.60004C209.478 3.69004 209.618 2.50004 210.322 1.66004C210.815 1.17004 211.73 0.540039 213.207 0.540039H225.241C227 0.540039 228.619 0.750039 229.815 2.08004C230.87 3.13004 231.433 4.88004 231.433 7.96004C231.433 9.50004 231.293 13.21 229.463 14.75C228.407 15.59 226.859 15.94 225.663 15.94H216.515V22.17H209.478ZM221.511 10.55C222.356 10.55 223.27 10.62 223.833 9.99004C224.185 9.64004 224.396 9.01004 224.396 8.10004C224.396 7.54004 224.326 6.84004 223.763 6.42004C223.2 5.93004 222.356 5.93004 221.581 5.93004H217.711C216.585 5.93004 216.515 6.70004 216.515 7.19004V10.55H221.511Z" fill="white"/>
<path d="M237.274 2.91996C237.978 1.30996 238.893 0.329956 242.27 0.329956C244.381 0.329956 246.211 0.539956 247.267 2.91996L255.289 22.17H247.9L246.211 17.69H238.4L236.711 22.17H229.322L237.274 2.91996ZM240.019 12.79H244.522L242.552 7.32996C242.481 7.18996 242.341 6.83996 242.27 6.83996C242.2 6.83996 242.059 7.11996 241.989 7.32996L240.019 12.79Z" fill="white"/>
<path d="M264.367 2.50001C265.281 0.40001 267.744 0.26001 269.081 0.26001C270.419 0.26001 272.881 0.40001 273.796 2.50001L282.17 22.17H274.711L269.433 7.89001C269.363 7.75001 269.222 7.40001 269.081 7.40001C268.941 7.40001 268.8 7.82001 268.73 7.89001L263.452 22.17H255.993L264.367 2.50001Z" fill="white"/>
<path d="M64.0926 31.8301H64.4444V38.9001H63.6V33.8601L61.2778 37.0101H61.137L58.8148 33.7901V38.9001H57.9704V31.8301H58.3222L61.2074 35.7501L64.0926 31.8301Z" fill="white"/>
<path d="M76.4778 32.6H73.2407V34.91H76.4074V35.61H73.2407V38.13H76.6185V38.9H72.3963V31.9H76.4778V32.6Z" fill="white"/>
<path d="M84.9926 34.63H86.963C88.5815 34.63 89.4259 35.47 89.4259 36.73C89.4259 37.92 88.5815 38.9 86.963 38.9C86.0481 38.9 85.063 38.9 84.1481 38.9C84.1481 36.52 84.1481 34.21 84.1481 31.9H88.863V32.6H84.9926V34.63ZM84.9926 35.33V38.13C85.6259 38.13 86.3296 38.13 86.963 38.13C88.0185 38.13 88.5815 37.57 88.5815 36.73C88.5815 35.96 88.0185 35.33 86.963 35.33H84.9926Z" fill="white"/>
<path d="M100.967 32.6H97.7296V34.91H100.896V35.61H97.7296V38.13H101.107V38.9H96.8852V31.9H100.967V32.6Z" fill="white"/>
<path d="M110.044 37.1501C109.904 38.5501 109.411 39.0401 107.933 38.8301V38.2001C108.848 38.3401 109.13 37.9201 109.2 37.0801L109.763 31.8301C111.1 31.8301 112.719 31.8301 114.056 31.8301V38.8301H113.211V32.5301H110.467L110.044 37.1501Z" fill="white"/>
<path d="M122.781 34.28H124.752C126.23 34.28 127.215 35.26 127.215 36.59C127.215 37.92 126.23 38.9 124.752 38.9H122.007V31.9H122.852V34.28H122.781ZM122.781 34.98V38.13C123.415 38.13 124.048 38.13 124.752 38.13C125.667 38.13 126.441 37.5 126.37 36.52C126.37 35.61 125.667 34.98 124.752 34.98H122.781Z" fill="white"/>
<path d="M139.107 38.9V35.61H135.378V38.9H134.533V31.9H135.378V34.84H139.107V31.9H139.952V38.9H139.107Z" fill="white"/>
<path d="M148.748 37.1501L147.904 38.9001H147.059V38.7601L150.367 31.8301H150.719L153.956 38.7601V38.9001H153.111L152.267 37.1501H148.748ZM149.03 36.3801H151.985L150.507 33.0901L149.03 36.3801Z" fill="white"/>
<path d="M162.47 36.1701C161.485 35.9601 160.781 35.1201 160.781 34.0701C160.781 32.8101 161.767 31.8301 163.174 31.8301H165.989V38.8301H165.144V36.3101H163.315L161.415 38.8301H160.5V38.6901L162.47 36.1701ZM165.144 35.6101V32.6001H163.174C162.259 32.6001 161.556 33.2301 161.556 34.1401C161.556 35.0501 162.259 35.6801 163.174 35.6801H165.144V35.6101Z" fill="white"/>
<path d="M183.441 35.0501C184.144 35.0501 184.707 35.0501 185.059 34.8401C185.481 34.5601 185.763 33.7901 185.974 33.1601C186.256 32.2501 186.748 31.6201 188.015 31.8301V32.3901C187.241 32.3201 186.889 32.6701 186.678 33.3701C186.467 34.0701 186.256 34.8401 185.763 35.2601L188.226 38.6901V38.9001H187.241L184.989 35.6801C184.637 35.8201 183.863 35.8201 183.441 35.8201V38.9001H182.596V31.9001H183.441V35.0501Z" fill="white"/>
<path d="M198.219 38.9701C196.248 38.9701 194.63 37.5701 194.63 35.3301C194.63 33.0901 196.248 31.6901 198.219 31.6901C200.189 31.6901 201.807 33.0901 201.807 35.3301C201.807 37.5001 200.33 38.9701 198.219 38.9701ZM198.219 38.2001C199.767 38.2001 200.963 37.0801 200.963 35.3301C200.963 33.5801 199.767 32.4601 198.219 32.4601C196.67 32.4601 195.474 33.5801 195.474 35.3301C195.474 37.0801 196.67 38.2001 198.219 38.2001Z" fill="white"/>
<path d="M215.459 31.8301H215.811V38.9001H214.967V33.8601L212.644 37.0101H212.504L210.181 33.8601V38.9001H209.337V31.8301H209.689L212.574 35.7501L215.459 31.8301Z" fill="white"/>
<path d="M229.111 31.8301V38.8301C228.83 38.8301 228.548 38.8301 228.267 38.8301V32.6001H224.537V38.9001C224.256 38.9001 223.974 38.9001 223.693 38.9001V31.9001H229.111V31.8301Z" fill="white"/>
<path d="M237.907 37.1501L237.063 38.9001H236.219V38.7601L239.526 31.8301H239.878L243.115 38.7601V38.9001H242.27L241.426 37.1501H237.907ZM238.189 36.3801H241.144L239.667 33.0901L238.189 36.3801Z" fill="white"/>
<path d="M254.796 38.9V35.61H251.067V38.9H250.222V31.9H251.067V34.84H254.796V31.9H255.641V38.9H254.796Z" fill="white"/>
<path d="M263.874 38.9001H263.593V31.8301H264.437V35.1201L264.367 37.1501L268.941 31.8301H269.222V38.9001H268.378V35.5401L268.448 33.5801L263.874 38.9001Z" fill="white"/>
<path d="M278.581 36.1701C277.596 35.9601 276.893 35.1201 276.893 34.0701C276.893 32.8101 277.878 31.8301 279.285 31.8301H282.1V38.8301H281.256V36.3101H279.426L277.526 38.8301H276.611V38.6901L278.581 36.1701ZM281.256 35.6101V32.6001H279.285C278.37 32.6001 277.667 33.2301 277.667 34.1401C277.667 35.0501 278.37 35.6801 279.285 35.6801H281.256V35.6101Z" fill="white"/>
<path d="M33.6222 0.540039L24.4037 25.67C24.3333 25.88 24.1222 26.51 23.8407 26.58H35.5926L46.7111 0.540039H33.6222Z" fill="white"/>
<path d="M23.2074 25.6701L20.463 18.1801H8.42963L12.0185 26.5801H23.7704C23.5593 26.4401 23.3481 25.8101 23.2074 25.6701ZM18.3518 22.8001H13.9889V21.7501H18.3518V22.8001Z" fill="white"/>
<path d="M14.0593 0.540039H0.970367L4.41852 8.66004H17.0148L14.0593 0.540039ZM11.3852 5.09004H7.02222V4.11004H11.3852V5.09004Z" fill="white"/>
<path d="M17.2259 9.15002H4.62962L8.21851 17.55H20.3222L17.2259 9.15002ZM14.6222 13.91H10.2593V12.86H14.6222V13.91Z" fill="white"/>
<path d="M15.6074 34.98C17.2259 38.69 21.5185 38.9 23.8407 38.9C26.163 38.9 30.4556 38.69 32.0741 34.98L35.4519 27H12.2296L15.6074 34.98Z" fill="white"/>
</svg>
