<svg width="24" height="24" viewBox="0 0 24 24" fill="none" xmlns="http://www.w3.org/2000/svg">
<g clip-path="url(#clip0_211_99899)">
<path d="M15 11V11.01" stroke="white" stroke-width="1.5" stroke-linecap="round" stroke-linejoin="round"/>
<path d="M5.17185 8.37765C4.73325 8.04056 4.39639 7.58875 4.19851 7.07218C4.00063 6.55561 3.94943 5.99438 4.05057 5.45053C4.15171 4.90668 4.40125 4.40138 4.77161 3.99048C5.14197 3.57958 5.61872 3.27908 6.14919 3.1222C6.67965 2.96532 7.24316 2.95816 7.77744 3.10151C8.31172 3.24486 8.79596 3.53315 9.17664 3.93451C9.55732 4.33586 9.81962 4.83466 9.93454 5.37576C10.0495 5.91687 10.0125 6.47922 9.82785 7.00065" stroke="white" stroke-width="1.5" stroke-linecap="round" stroke-linejoin="round"/>
<path d="M16.002 4V7.803C17.2396 8.51912 18.1818 9.65245 18.66 11H20.001C20.2662 11 20.5205 11.1054 20.7081 11.2929C20.8956 11.4804 21.001 11.7348 21.001 12V14C21.001 14.2652 20.8956 14.5196 20.7081 14.7071C20.5205 14.8946 20.2662 15 20.001 15H18.659C18.323 15.95 17.752 16.8 17.001 17.473V19.5C17.001 19.8978 16.8429 20.2794 16.5616 20.5607C16.2803 20.842 15.8988 21 15.501 21C15.1031 21 14.7216 20.842 14.4403 20.5607C14.159 20.2794 14.001 19.8978 14.001 19.5V18.917C13.6705 18.9724 13.336 19.0001 13.001 19H9.00097C8.66591 19.0001 8.33142 18.9724 8.00097 18.917V19.5C8.00097 19.8978 7.84293 20.2794 7.56163 20.5607C7.28032 20.842 6.89879 21 6.50097 21C6.10314 21 5.72161 20.842 5.44031 20.5607C5.159 20.2794 5.00097 19.8978 5.00097 19.5V17.5V17.473C4.09493 16.663 3.45624 15.5969 3.16945 14.4159C2.88266 13.2348 2.96128 11.9946 3.39491 10.8592C3.82854 9.72387 4.59673 8.74697 5.5978 8.05783C6.59887 7.36869 7.78562 6.9998 9.00097 7H11.501L16.001 4H16.002Z" stroke="white" stroke-width="1.5" stroke-linecap="round" stroke-linejoin="round"/>
</g>
<defs>
<clipPath id="clip0_211_99899">
<rect width="24" height="24" fill="white"/>
</clipPath>
</defs>
</svg>
