<svg xmlns="http://www.w3.org/2000/svg">
  <symbol id="location-pin" viewBox="0 0 24 24" fill="none">
    <g clip-path="url(#clip0_211_76229)">
    <path d="M9 11C9 11.7956 9.31607 12.5587 9.87868 13.1213C10.4413 13.6839 11.2044 14 12 14C12.7956 14 13.5587 13.6839 14.1213 13.1213C14.6839 12.5587 15 11.7956 15 11C15 10.2044 14.6839 9.44129 14.1213 8.87868C13.5587 8.31607 12.7956 8 12 8C11.2044 8 10.4413 8.31607 9.87868 8.87868C9.31607 9.44129 9 10.2044 9 11Z" stroke="white" stroke-width="1.5" stroke-linecap="round" stroke-linejoin="round"/>
    <path d="M17.657 16.6567L13.414 20.8997C13.039 21.2743 12.5306 21.4848 12.0005 21.4848C11.4704 21.4848 10.962 21.2743 10.587 20.8997L6.343 16.6567C5.22422 15.5379 4.46234 14.1124 4.15369 12.5606C3.84504 11.0087 4.00349 9.40022 4.60901 7.93844C5.21452 6.47665 6.2399 5.22725 7.55548 4.34821C8.87107 3.46918 10.4178 3 12 3C13.5822 3 15.1289 3.46918 16.4445 4.34821C17.7601 5.22725 18.7855 6.47665 19.391 7.93844C19.9965 9.40022 20.155 11.0087 19.8463 12.5606C19.5377 14.1124 18.7758 15.5379 17.657 16.6567Z" stroke="white" stroke-width="1.5" stroke-linecap="round" stroke-linejoin="round"/>
    </g>
    <defs>
      <clipPath id="clip0_211_76229">
        <rect width="24" height="24" fill="white" />
      </clipPath>
    </defs>
  </symbol>
  <symbol id="user" viewBox="0 0 24 24" fill="none">
    <g clip-path="url(#clip0_211_67433)">
    <path d="M8 7C8 8.06087 8.42143 9.07828 9.17157 9.82843C9.92172 10.5786 10.9391 11 12 11C13.0609 11 14.0783 10.5786 14.8284 9.82843C15.5786 9.07828 16 8.06087 16 7C16 5.93913 15.5786 4.92172 14.8284 4.17157C14.0783 3.42143 13.0609 3 12 3C10.9391 3 9.92172 3.42143 9.17157 4.17157C8.42143 4.92172 8 5.93913 8 7Z" stroke="black" stroke-width="1.5" stroke-linecap="round" stroke-linejoin="round"/>
    <path d="M6 21V19C6 17.9391 6.42143 16.9217 7.17157 16.1716C7.92172 15.4214 8.93913 15 10 15H14C15.0609 15 16.0783 15.4214 16.8284 16.1716C17.5786 16.9217 18 17.9391 18 19V21" stroke="black" stroke-width="1.5" stroke-linecap="round" stroke-linejoin="round"/>
    </g>
    <defs>
    <clipPath id="clip0_211_67433">
    <rect width="24" height="24" fill="white"/>
    </clipPath>
    </defs>
  </symbol>
  <symbol id="heart" viewBox="0 0 24 24" fill="none">
    <g clip-path="url(#clip0_211_71075)">
    <path d="M19.5013 12.5717L12.0013 19.9997L4.50128 12.5717C4.00658 12.0903 3.61692 11.5117 3.35683 10.8723C3.09673 10.2329 2.97184 9.54664 2.99002 8.85662C3.00819 8.1666 3.16904 7.48782 3.46244 6.86303C3.75583 6.23823 4.17541 5.68094 4.69476 5.22627C5.21411 4.77159 5.82198 4.42938 6.48009 4.22117C7.1382 4.01296 7.83228 3.94327 8.51865 4.01649C9.20501 4.08971 9.86878 4.30425 10.4682 4.64659C11.0675 4.98894 11.5895 5.45169 12.0013 6.00569C12.4148 5.45571 12.9374 4.99701 13.5364 4.65829C14.1353 4.31958 14.7978 4.10814 15.4822 4.03721C16.1666 3.96628 16.8584 4.03739 17.5141 4.24608C18.1697 4.45477 18.7753 4.79656 19.2928 5.25005C19.8104 5.70354 20.2287 6.25897 20.5217 6.88158C20.8147 7.50419 20.976 8.18057 20.9956 8.8684C21.0152 9.55622 20.8925 10.2407 20.6354 10.8789C20.3783 11.5172 19.9922 12.0955 19.5013 12.5777" stroke="black" stroke-width="1.5" stroke-linecap="round" stroke-linejoin="round"/>
    </g>
    <defs>
    <clipPath id="clip0_211_71075">
    <rect width="24" height="24" fill="white"/>
    </clipPath>
    </defs>
  </symbol>
  <symbol id="cart" viewBox="0 0 24 24" fill="none">
    <g clip-path="url(#clip0_211_80947)">
    <path d="M6.33227 8H17.6713C17.9596 7.99997 18.2446 8.06229 18.5066 8.1827C18.7687 8.30311 19.0015 8.47876 19.1893 8.6976C19.3771 8.91645 19.5153 9.17331 19.5946 9.45059C19.6738 9.72786 19.6921 10.019 19.6483 10.304L18.3933 18.456C18.2843 19.1644 17.9253 19.8105 17.3813 20.2771C16.8372 20.7438 16.144 21.0002 15.4273 21H8.57527C7.85867 21 7.16575 20.7434 6.6219 20.2768C6.07805 19.8102 5.71919 19.1643 5.61027 18.456L4.35527 10.304C4.31144 10.019 4.32976 9.72786 4.40898 9.45059C4.48819 9.17331 4.62643 8.91645 4.81422 8.6976C5.002 8.47876 5.23489 8.30311 5.49691 8.1827C5.75894 8.06229 6.0439 7.99997 6.33227 8Z" stroke="black" stroke-width="1.5" stroke-linecap="round" stroke-linejoin="round"/>
    <path d="M9 11V6C9 5.20435 9.31607 4.44129 9.87868 3.87868C10.4413 3.31607 11.2044 3 12 3C12.7956 3 13.5587 3.31607 14.1213 3.87868C14.6839 4.44129 15 5.20435 15 6V11" stroke="black" stroke-width="1.5" stroke-linecap="round" stroke-linejoin="round"/>
    </g>
    <defs>
      <clipPath id="clip0_211_80947">
        <rect width="24" height="24" fill="white"/>
      </clipPath>
    </defs>
  </symbol>
  <symbol id="burger-menu" viewBox="0 0 24 24" fill="none">
    <g clip-path="url(#clip0_211_67031)">
    <path d="M4 6H20" stroke="black" stroke-width="1.5" stroke-linecap="round" stroke-linejoin="round"/>
    <path d="M4 12H20" stroke="black" stroke-width="1.5" stroke-linecap="round" stroke-linejoin="round"/>
    <path d="M4 18H20" stroke="black" stroke-width="1.5" stroke-linecap="round" stroke-linejoin="round"/>
    </g>
    <defs>
    <clipPath id="clip0_211_67031">
    <rect width="24" height="24" fill="white"/>
    </clipPath>
    </defs>
  </symbol>
</svg>
